<?xml version="1.0" encoding="UTF-8"?>
<!DOCTYPE svg PUBLIC "-//W3C//DTD SVG 1.1//EN" "http://www.w3.org/Graphics/SVG/1.1/DTD/svg11.dtd">
<!-- Creator: CorelDRAW Standard 2021 (64-Bit Wersja próbna) -->
<svg xmlns="http://www.w3.org/2000/svg" xml:space="preserve" width="50.8mm" height="50.8mm" version="1.1" style="shape-rendering:geometricPrecision; text-rendering:geometricPrecision; image-rendering:optimizeQuality; fill-rule:evenodd; clip-rule:evenodd"
viewBox="0 0 5080 5080"
 xmlns:xlink="http://www.w3.org/1999/xlink"
 xmlns:xodm="http://www.corel.com/coreldraw/odm/2003">
 <defs>
  <style type="text/css">
   <![CDATA[
    .str0 {stroke:black;stroke-width:16.93;stroke-miterlimit:22.9256}
    .fil1 {fill:none}
    .fil0 {fill:black}
   ]]>
  </style>
 </defs>
 <g id="Warstwa_x0020_1">
  <metadata id="CorelCorpID_0Corel-Layer"/>
  <path class="fil0 str0" d="M1285.07 1559.03c134.45,0 243.44,100.39 243.44,224.22 0,123.83 -108.99,224.22 -243.44,224.22 -134.45,0 -243.44,-100.39 -243.44,-224.22 0,-123.83 108.99,-224.22 243.44,-224.22zm2286 -126.71c134.45,0 243.44,100.39 243.44,224.22 0,123.83 -108.99,224.22 -243.44,224.22 -134.45,0 -243.44,-100.39 -243.44,-224.22 0,-123.83 108.99,-224.22 243.44,-224.22z"/>
  <g id="_1797818050144">
   <path class="fil0" d="M1189.57 3132.37c37.67,-243.54 433.13,-522.17 682.73,-617.31 613.98,-234.05 1260.7,-205.8 1775.49,208.09l292.44 272.54 -1 -1.94c19.31,24.71 13.53,16.42 30.41,49.07 15.33,44.34 -8.2,92.71 -52.54,108.04 -40.68,14.06 -84.74,-4.58 -103.58,-41.99 -399.08,-513.63 -984.46,-646.74 -1599.58,-521.65 -289.35,58.84 -731.55,261.93 -854.56,549.1 -2.07,45.08 -39.27,81 -84.86,81 -46.92,0 -84.95,-38.03 -84.95,-84.95z"/>
  </g>
  <path class="fil1" d="M1274.52 3132.37c0,-98.24 291.33,-339.14 369.43,-406.84 4.13,-3.58 8.39,-7.42 12.75,-11 7.73,-6.36 16.36,-11.67 24.72,-17.77 17.74,-12.96 38.75,-23.92 61.18,-32.92 20.25,-8.12 41.1,-16.57 62.54,-25.32 15,-6.11 26.97,-14.07 42.95,-19.7 17.83,-6.27 38.64,-17.68 57.13,-25.45 174.54,-73.36 396.01,-123.67 620.61,-123.67 112.12,0 472.63,-8.32 553.96,33.2 23.76,12.14 121.59,25.21 206.51,73.56 107.9,61.42 526.58,357.66 578.45,458.2 6.33,12.27 21.21,26.13 24.6,35.91"/>
 </g>
</svg>
